PathFileType	4	(X/Y/Z)	Patient4_TMGait_0pt7_01_left_40.trc.trc
DataRate	CameraRate	NumFrames	NumMarkers	Units	OrigDataRate	OrigDataStartFrame	OrigNumFrames
84.848484848485	84.848484848485	4	33	mm	84.848484848485	106	       141
Frame#	Time	Sacral			L.Shoulder			Chest			R.Shoulder			Neck			R.ASIS			L.ASIS			R.Thigh.Superior			R.Thigh.Lateral			R.Thigh.Inferior			R.Patella			L.Thigh.Superior			L.Thigh.Lateral			L.Thigh.Inferior			L.Patella			L.Shank.Superior			L.Shank.Lateral			L.Shank.Inferior			R.Shank.Superior			R.Shank.Lateral			R.Shank.Inferior			R.Heel			R.Midfoot.Superior			R.Midfoot.Lateral			R.Toe			L.Heel			L.Midfoot.Lateral			L.Midfoot.Superior			L.Toe			L.Elbow			L.Wrist			R.Elbow			R.Wrist			
		X1	Y1	Z1	X2	Y2	Z2	X3	Y3	Z3	X4	Y4	Z4	X5	Y5	Z5	X6	Y6	Z6	X7	Y7	Z7	X8	Y8	Z8	X9	Y9	Z9	X10	Y10	Z10	X11	Y11	Z11	X12	Y12	Z12	X13	Y13	Z13	X14	Y14	Z14	X15	Y15	Z15	X16	Y16	Z16	X17	Y17	Z17	X18	Y18	Z18	X19	Y19	Z19	X20	Y20	Z20	X21	Y21	Z21	X22	Y22	Z22	X23	Y23	Z23	X24	Y24	Z24	X25	Y25	Z25	X26	Y26	Z26	X27	Y27	Z27	X28	Y28	Z28	X29	Y29	Z29	X30	Y30	Z30	X31	Y31	Z31	X32	Y32	Z32	X33	Y33	Z33	

106	47.527500000000	833.141311623695	1016.472295301096	510.642815918602	1023.589895225456	1431.849263751063	314.071433330667	1140.561437616937	1350.815654870924	460.786334847431	1089.594617145167	1433.259175302035	642.584695406714	1056.276452866780	1490.816282948043	465.832766273585	1064.240195301139	944.176600649755	612.119341088691	1031.267493895337	960.338601920855	338.438777497654	1086.334364084176	741.402896540268	587.079179886594	996.084179853629	637.063253682736	644.523641691962	1070.506470659035	581.472726477188	566.148178136420	1063.999988737732	496.127024764534	571.839118878974	1125.014892004412	806.163251093575	356.856899930003	1093.619823652275	677.452965132999	272.220778511906	1211.047172664106	629.864679242963	319.844778685932	1239.272661055154	546.463523615678	307.732357568800	1192.703376223978	467.560910002083	306.371583071576	1067.821061037324	383.494613967319	269.161638359840	1102.833934567000	256.476910266271	320.693118758536	1037.224641481583	408.310159933141	574.671856302990	962.608528738109	301.852738681005	627.062488912806	1014.587836046121	210.071064665389	564.282390880135	888.006709857506	42.406023348065	517.737712279198	1058.420096610753	98.377635847724	561.758443819577	968.880347457458	36.067162590304	594.923404344759	1177.001417079096	47.410763862870	591.281165208071	948.157113699882	134.792697968964	373.167503137116	1009.287348397034	109.196430014062	287.126832032046	1108.016127923866	149.805686625589	299.614232618716	1213.700303389349	67.723156261529	262.267307934254	888.452532789021	1101.647096411508	222.525912678539	967.067897376034	850.775997822658	215.749547716962	1139.200389705224	1089.774920092541	769.582900953172	1327.268154810702	915.511864970845	718.388065835456	
107	47.539285714286	832.079689333005	1017.010242380754	511.172746225034	1023.024768739451	1431.602678154702	314.590999299211	1140.309511205161	1350.411357970629	460.918778333732	1090.157011696606	1433.027344952469	642.831286699343	1056.224507877290	1490.567265976622	466.268385660484	1062.940665498681	943.965606139197	612.637230099598	1030.155018904835	960.128877855791	338.933107938634	1082.525306766743	740.606703505666	587.044747985886	991.280514951813	637.046905694312	644.902984653143	1064.679763285269	580.686202618782	566.426425770247	1057.221692694803	495.697448366306	572.113792183002	1123.411044608022	806.640806962561	357.584505708846	1092.973853442180	677.628569361625	272.784124413871	1209.979456800228	630.656567880162	321.403606666790	1239.494013193772	549.190265958513	309.349012365979	1196.912767140364	469.764700405139	306.970189171339	1078.129530861847	378.429942738233	267.859884091436	1121.042080890200	253.142385806791	318.531337797711	1030.131606295963	408.074509394418	574.796628411695	955.191468367814	301.854144912497	627.191929121655	1006.774514971375	209.926508671397	564.302082098119	879.739151190953	42.372350554679	517.790386014077	1050.159240409570	98.326059326245	561.759534464739	960.579909225790	36.079593419282	594.936899173593	1168.691847213672	47.297916751067	591.333343399860	974.451429902920	121.474276780803	368.972922176204	1037.560316140114	100.335110563378	283.227604959560	1133.489889950708	146.711510525604	296.656228277671	1244.208706774817	71.370233474428	259.633126896150	883.081088157971	1103.251689977139	224.618433926260	944.804203061074	847.554216341191	218.645582050241	1148.569264100178	1091.501861057525	769.401655605253	1345.649977990956	929.634602989984	712.769683358117	
108	47.551071428571	831.152959199150	1017.394552873409	511.535287174974	1022.585859639100	1431.275848213842	314.958644593940	1140.110602734372	1349.911059027795	460.953944741819	1090.656163900060	1432.671151979094	642.961397470271	1056.193500541172	1490.220540415932	466.590040761408	1061.740866311602	943.682270118254	613.055959418662	1029.193250141186	959.753910463452	339.299979451867	1078.898434833957	739.761938870523	586.979378600727	986.594305137985	636.983963047957	645.198196600884	1058.977265795397	579.867676056355	566.656804543388	1050.568939300879	495.227661362792	572.317795922510	1121.618981330027	806.406515823563	358.343493399128	1091.844452630261	677.170266045777	273.376672551891	1208.163303249828	630.447117843943	323.296632901058	1238.810069109847	551.088112054009	311.363777023137	1200.242282891211	471.511416888708	307.843432983213	1088.223007197773	373.300672064548	266.420837575113	1138.765000862789	250.288388684614	316.465366939861	1023.132494956733	407.829978417423	574.877608914091	947.847001137998	301.842309892408	627.287021771724	998.985163996531	209.758506404775	564.284413759103	871.466691270122	42.328024221067	517.846264560124	1041.889648219685	98.265782950615	561.745866618173	952.275845147452	36.088835050013	594.948978600799	1160.383474371740	47.183693176952	591.375438768288	1000.794080014127	109.154801373680	364.376520586245	1065.929590906688	92.580449420862	279.200275159248	1158.609913002368	144.542226688557	293.898285764647	1274.048119139313	76.217131149595	257.701958592420	878.130423713317	1104.825733637340	226.388548752311	923.322618830826	845.616586472842	221.536697794368	1157.346003640080	1093.309410600139	769.022385505484	1362.752313531561	944.781513194739	706.827572838906	
109	47.562857142857	830.374126386357	1017.629121741223	511.740690584405	1022.295920613585	1430.879135857373	315.163885668628	1139.974310342024	1349.326833747805	460.895100375799	1091.085550895930	1432.205103855914	642.973539259412	1056.202084409825	1489.787129110778	466.787017197294	1060.655382150819	943.342225912300	613.364568319732	1028.381463832687	959.225919689716	339.531451208647	1075.461787610435	738.870660177277	586.932113335245	982.000687731038	636.889140846092	645.420599858016	1053.391623889435	579.025234340641	566.868229526849	1044.033558393914	494.721859311911	572.476021674562	1119.674453740759	805.511816038541	359.111183679855	1090.249764859732	676.136761261618	273.943996548741	1205.680713072900	629.321169360236	325.384024783795	1237.307425883940	552.205901637938	313.648186242622	1202.729150863838	472.829612735830	308.924313988332	1097.995040783418	368.232136240508	264.914906009585	1155.789622221990	248.011160535120	314.603224585977	1016.214780803588	407.585153619720	574.936262716946	940.544047751013	301.831544854372	627.356725166899	991.205940850774	209.578168976232	564.250095171539	863.183583885683	42.277621776707	517.903603074160	1033.609528802676	98.201826022059	561.727539123640	943.965035716221	36.093888020626	594.962391075996	1152.075020219240	47.074437497024	591.410485345079	1026.834292766062	98.061865978975	359.635263369618	1094.006538692926	86.067610282572	275.282545415348	1183.044947147676	143.381964275695	291.493265110192	1302.838522527409	82.257591248352	256.618469960636	873.557565271851	1106.383053872186	227.856475315467	902.846156237828	844.885432545535	224.393470399956	1165.515276727531	1095.149262145876	768.415198835402	1378.449035144964	960.874409991398	700.631365060499	
